<svg xmlns="http://www.w3.org/2000/svg" width="131" height="115" viewBox="0 0 131 115" fill="none"><g clip-path="url(#clip0_81_39)"><path d="M43.151 52.9333C43.151 49.7961 43.151 45.068 46.3568 41.0873C46.3349 41.0577 46.313 41.0281 46.2837 40.9985C43.8739 38.0537 40.3176 36.2039 36.4985 35.8858C36.44 35.8784 35.7025 35.834 35.4688 35.834C35.4469 35.834 35.4177 35.834 35.3958 35.834C35.3739 35.834 35.3447 35.834 35.3228 35.834C35.0818 35.834 34.3442 35.8784 34.2931 35.8858C30.4739 36.2113 26.9176 38.0611 24.5078 40.9985C21.2363 44.9941 21.2363 49.7739 21.2363 52.9407V67.5243H27.6552V52.9407C27.6552 49.1449 27.9254 47.014 29.4516 45.1494C30.7952 43.5142 32.8034 42.4932 34.9649 42.3526C35.111 42.3452 35.257 42.3378 35.4031 42.3378C35.5491 42.3378 35.6952 42.3378 35.8412 42.3526C38.0028 42.4932 40.0182 43.5142 41.3546 45.1494C42.8808 47.014 43.151 49.1449 43.151 52.9333Z" fill="#0075BF"></path><path d="M68.2122 40.9912C65.8024 38.0464 62.2461 36.1966 58.4269 35.8785C58.3685 35.8711 57.631 35.8267 57.3973 35.8267C57.3754 35.8267 57.3462 35.8267 57.3243 35.8267C57.3024 35.8267 57.2731 35.8267 57.2512 35.8267C57.0103 35.8267 56.2727 35.8711 56.2216 35.8785C52.4024 36.204 48.8461 38.0538 46.4363 40.9912C46.4144 41.0208 46.3925 41.0504 46.3633 41.08C49.5618 45.0533 49.5691 49.7887 49.5691 52.926H49.5764C49.5764 49.1376 49.8466 47.0067 51.3728 45.1421C52.7164 43.5069 54.7246 42.4858 56.8861 42.3453C57.0322 42.3379 57.1782 42.3305 57.3243 42.3305C57.4703 42.3305 57.6164 42.3305 57.7624 42.3453C59.9239 42.4858 61.9394 43.5069 63.2758 45.1421C64.802 47.0067 65.0722 49.1376 65.0722 52.9334V67.517H71.491V52.9334C71.491 49.7739 71.491 44.9867 68.2195 40.9912H68.2122Z" fill="#2DAFE6"></path><path d="M46.3557 41.0876C43.1572 45.0684 43.1426 49.7964 43.1426 52.9336V67.5172H49.5687V52.9336C49.5687 49.7964 49.5541 45.061 46.3557 41.0876Z" fill="#1E4289"></path><path d="M6.41211 42.064V48.553H18.1326V42.064H6.41211Z" fill="#009E45"></path><path d="M0.0078125 67.6574H6.42666V48.5603H0.0078125C0.0078125 57.5798 0.0078125 67.6574 0.0078125 67.6574Z" fill="#95C11F"></path><path d="M23.0538 23.1742C20.5199 21.1321 17.3579 20 14.1522 20C13.3854 20 12.6113 20.0666 11.8592 20.1924C5.04599 21.354 0.0584196 27.4139 0 34.6132C0 34.8352 0 37.8984 0 42.0789L6.41155 42.0715C6.41155 42.0715 6.41155 35.3975 6.41886 34.6724C6.44807 30.6399 9.18649 27.2511 12.918 26.6148C13.327 26.5482 13.7432 26.5112 14.1522 26.5112C15.9047 26.5112 17.6427 27.1327 19.0521 28.2722C20.4688 29.419 21.4546 31.0024 21.8416 32.7338H28.3481C27.91 29.0195 26.0113 25.5715 23.0465 23.189L23.0538 23.1742Z" fill="#95C11F"></path><path d="M6.41937 42.064H0.0078125V48.553H6.41937V42.064Z" fill="#05893E"></path><path d="M81.0146 26.4443H74.5957C74.5957 26.4443 74.5957 30.98 74.5957 35.8338H81.0073V26.4443H81.0146Z" fill="#E71D73"></path><path d="M92.721 42.3231V35.8267H81.0078V42.3231H92.721Z" fill="#A90D4E"></path><path d="M96.4373 54.9381C96.0503 56.6695 95.0718 58.2529 93.6478 59.3998C92.2384 60.5318 90.5004 61.1608 88.7479 61.1608C88.3316 61.1608 87.9154 61.1238 87.5137 61.0572C83.7749 60.4209 81.0438 57.0321 81.0146 52.9996C81.0146 52.1265 81.0073 42.3301 81.0073 42.3301H74.5957C74.5957 47.7758 74.5957 52.6666 74.5957 53.0514C74.6468 60.2507 79.6344 66.3179 86.4549 67.4722C87.207 67.598 87.9811 67.6646 88.7479 67.6646C91.9463 67.6646 95.1083 66.5399 97.6496 64.4903C100.607 62.1078 102.513 58.6599 102.951 54.9455H96.4446L96.4373 54.9381Z" fill="#E71D73"></path><path d="M81.0073 35.8267H74.5957V42.3157H81.0073V35.8267Z" fill="#650076"></path><path d="M124.324 57.587V58.3861C124.324 59.8659 123.133 61.072 121.673 61.072H105.162V67.5758H121.673C126.675 67.5758 130.743 63.4545 130.743 58.3861V57.587C130.743 57.1504 130.713 56.7065 130.648 56.2626C130.582 55.7964 130.472 55.3377 130.334 54.9011H121.673C123.133 54.9011 124.324 56.1072 124.324 57.587Z" fill="#EF9B1C"></path><path d="M110.186 45.7119V44.9128C110.186 43.433 111.377 42.2269 112.837 42.2269H127.53V35.7231H112.837C107.835 35.7231 103.768 39.8444 103.768 44.9128V45.7119C103.768 46.1485 103.797 46.5924 103.863 47.0364C103.928 47.5025 104.038 47.9612 104.177 48.3978H112.837C111.377 48.3978 110.186 47.1917 110.186 45.7119Z" fill="#EF9B1C"></path><path d="M121.672 48.3977H104.176C105.33 52.186 108.835 54.8941 112.836 54.8941H130.333C129.179 51.1058 125.674 48.3977 121.672 48.3977Z" fill="#E00613"></path><path d="M55.6915 79.3182C55.6915 81.0422 55.5674 82.0041 54.8736 82.855C54.2675 83.6023 53.3547 84.061 52.3689 84.1276C52.3032 84.1276 52.2375 84.1276 52.1717 84.1276C52.106 84.1276 52.0403 84.1276 51.9746 84.1276C50.996 84.061 50.0759 83.6023 49.4698 82.855C48.7761 82.0115 48.652 81.0422 48.652 79.3182V72.696H45.7383V79.3182C45.7383 80.7537 45.7383 82.929 47.228 84.7418C48.3233 86.081 49.9372 86.9171 51.6752 87.0651C51.6752 87.0651 52.033 87.0873 52.1425 87.0873C52.1425 87.0873 52.1644 87.0873 52.179 87.0873H52.2156C52.3251 87.0873 52.661 87.0651 52.6829 87.0651C54.4209 86.9171 56.0347 86.081 57.1301 84.7418C57.1447 84.727 57.152 84.7122 57.1593 84.6974C58.6125 82.892 58.6198 80.7389 58.6198 79.3182V72.696H55.6988V79.3182H55.6915Z" fill="#9D9D9C"></path><path d="M24.3079 72.7995C24.3079 72.7995 23.9501 72.7773 23.8406 72.7773H23.804C23.804 72.7773 23.7821 72.7773 23.7675 72.7773C23.658 72.7773 23.3221 72.7995 23.3002 72.7995C21.5622 72.9475 19.9484 73.7836 18.853 75.1229C17.3633 76.9356 17.3633 79.111 17.3633 80.5464V87.1686H20.277V80.5464C20.277 78.8224 20.4011 77.8531 21.0948 77.0096C21.7009 76.2623 22.621 75.8036 23.5996 75.737C23.6653 75.737 23.731 75.737 23.7967 75.737C23.8625 75.737 23.9282 75.737 23.9939 75.737C24.4102 75.7666 24.8118 75.8776 25.1842 76.0403L26.8127 73.5542C26.0386 73.1399 25.1842 72.8809 24.3006 72.8069L24.3079 72.7995Z" fill="#9D9D9C"></path><path d="M35.2322 72.696C31.3181 72.696 28.127 75.922 28.127 79.888C28.127 83.8539 31.3108 87.0799 35.2322 87.0799C39.1537 87.0799 42.3302 83.8539 42.3302 79.888C42.3302 75.922 39.1464 72.696 35.2322 72.696ZM35.2322 84.1276C32.9247 84.1276 31.0479 82.2261 31.0479 79.888C31.0479 77.5498 32.9247 75.6483 35.2322 75.6483C37.5398 75.6483 39.4165 77.5498 39.4165 79.888C39.4165 82.2261 37.5398 84.1276 35.2322 84.1276Z" fill="#9D9D9C"></path><path d="M69.4691 72.543C65.5915 72.543 62.4295 75.7098 62.3711 79.6313C62.3711 79.6313 62.3711 79.6683 62.3711 79.7275C62.3711 79.7275 62.3711 79.7349 62.3711 79.7423C62.3711 79.7497 62.3711 79.7497 62.3711 79.7571C62.3711 80.016 62.3711 80.7116 62.3711 82.0286V84.9512C62.3711 86.2683 62.3711 93.6452 62.3711 94.2001H65.2848C65.2848 93.4454 65.2848 87.4521 65.2848 85.5358C66.4605 86.4163 67.9064 86.9342 69.4764 86.9342C73.3905 86.9342 76.5744 83.7082 76.5744 79.7423C76.5744 75.7764 73.3905 72.5504 69.4764 72.5504L69.4691 72.543ZM69.4691 83.9746C67.1615 83.9746 65.2848 82.073 65.2848 79.7349C65.2848 77.3968 67.1615 75.4952 69.4691 75.4952C71.7767 75.4952 73.6534 77.3968 73.6534 79.7349C73.6534 82.073 71.7767 83.9746 69.4691 83.9746Z" fill="#9D9D9C"></path><path d="M7.10529 72.6966C3.19117 72.6966 0 75.9226 0 79.8885C0 83.8544 3.18387 87.0804 7.10529 87.0804C8.66802 87.0804 10.1139 86.5551 11.2896 85.682C11.2896 86.5329 11.2896 87.4948 11.2896 87.6724C11.275 89.5073 10.0336 91.0464 8.3321 91.3349C8.14954 91.3645 7.95967 91.3793 7.76981 91.3793C6.97384 91.3793 6.18518 91.0981 5.54257 90.5802C4.89995 90.0623 4.4545 89.3372 4.27924 88.5529H1.32175C1.51891 90.2399 2.3879 91.8085 3.73155 92.8961C4.88534 93.8284 6.32393 94.3389 7.77711 94.3389C8.12763 94.3389 8.47815 94.3093 8.82137 94.2502C11.9176 93.7248 14.1887 90.965 14.2106 87.6946C14.2106 87.591 14.2106 86.1999 14.2106 84.3058V81.3535C14.2106 80.4139 14.2106 79.9773 14.2106 79.9773C14.2106 79.9773 14.2106 79.9107 14.2106 79.8811C14.2106 75.9152 11.0267 72.6892 7.11259 72.6892L7.10529 72.6966ZM7.10529 84.1282C4.79771 84.1282 2.92098 82.2266 2.92098 79.8885C2.92098 77.5504 4.79771 75.6488 7.10529 75.6488C9.41287 75.6488 11.2896 77.5504 11.2896 79.8885C11.2896 82.2266 9.41287 84.1282 7.10529 84.1282Z" fill="#9D9D9C"></path></g><defs><clipPath id="clip0_81_39"><rect width="130.74" height="115" fill="white"></rect></clipPath></defs></svg>